<svg width="113" height="25" viewBox="0 0 113 25" fill="none" xmlns="http://www.w3.org/2000/svg">
<path d="M8.20455 24.3196C12.5618 24.3196 15.2997 21.7628 15.5128 18.0021H11.2301C10.9638 19.7493 9.81321 20.7294 8.25781 20.7294C6.13778 20.7294 4.76349 18.9503 4.76349 15.8182C4.76349 12.7287 6.14844 10.9602 8.25781 10.9602C9.91974 10.9602 10.9851 12.0575 11.2301 13.6875H15.5128C15.321 9.90554 12.4553 7.4233 8.18324 7.4233C3.21875 7.4233 0.150568 10.8643 0.150568 15.8821C0.150568 20.8572 3.16548 24.3196 8.20455 24.3196ZM27.012 24.3196C31.9765 24.3196 35.0659 20.9212 35.0659 15.8821C35.0659 10.8111 31.9765 7.4233 27.012 7.4233C22.0475 7.4233 18.958 10.8111 18.958 15.8821C18.958 20.9212 22.0475 24.3196 27.012 24.3196ZM27.0333 20.804C24.7428 20.804 23.5709 18.7053 23.5709 15.8501C23.5709 12.995 24.7428 10.8857 27.0333 10.8857C29.2811 10.8857 30.453 12.995 30.453 15.8501C30.453 18.7053 29.2811 20.804 27.0333 20.804ZM39.2169 24H43.7553V7.63636H39.2169V24ZM41.4968 5.52699C42.8498 5.52699 43.9577 4.49361 43.9577 3.22585C43.9577 1.96875 42.8498 0.935368 41.4968 0.935368C40.1544 0.935368 39.0465 1.96875 39.0465 3.22585C39.0465 4.49361 40.1544 5.52699 41.4968 5.52699ZM53.1291 14.5398C53.1398 12.4304 54.3969 11.1946 56.2293 11.1946C58.051 11.1946 59.1483 12.3878 59.1376 14.3906V24H63.676V13.581C63.676 9.76704 61.4388 7.4233 58.0297 7.4233C55.6007 7.4233 53.8429 8.61648 53.1078 10.5234H52.9161V7.63636H48.5908V24H53.1291V14.5398ZM72.9912 2.18182H68.4529V24H72.9912V2.18182ZM85.2841 24.3196C89.3324 24.3196 92.0597 22.3487 92.6989 19.3125L88.5014 19.0355C88.0433 20.282 86.8714 20.9318 85.3587 20.9318C83.0895 20.9318 81.6513 19.4297 81.6513 16.9901V16.9794H92.7947V15.733C92.7947 10.1719 89.4283 7.4233 85.103 7.4233C80.2876 7.4233 77.1662 10.843 77.1662 15.8928C77.1662 21.081 80.245 24.3196 85.2841 24.3196ZM81.6513 14.1669C81.7472 12.3026 83.1641 10.8111 85.1776 10.8111C87.1484 10.8111 88.5121 12.2173 88.5227 14.1669H81.6513ZM101.495 14.5398C101.505 12.4304 102.762 11.1946 104.595 11.1946C106.417 11.1946 107.514 12.3878 107.503 14.3906V24H112.042V13.581C112.042 9.76704 109.804 7.4233 106.395 7.4233C103.966 7.4233 102.209 8.61648 101.473 10.5234H101.282V7.63636H96.9564V24H101.495V14.5398Z" fill="#333333"/>
</svg>
