<svg width="118" height="25" viewBox="0 0 118 25" fill="none" xmlns="http://www.w3.org/2000/svg">
<path d="M9.375 24.2983C14.2223 24.2983 17.1946 21.5178 17.2585 17.1818H11.804C11.6761 18.897 10.7493 19.8239 9.46023 19.8239C7.91548 19.8239 6.90341 18.5028 6.90341 15.8182C6.90341 13.1335 7.91548 11.8125 9.46023 11.8125C10.7599 11.8125 11.6442 12.7393 11.804 14.4545H17.2585C17.2266 10.1932 14.1903 7.4233 9.375 7.4233C4.0483 7.4233 0.894886 10.8324 0.894886 15.8608C0.894886 20.8892 4.0483 24.2983 9.375 24.2983ZM28.7684 24.2983C34.0951 24.2983 37.2485 20.8892 37.2485 15.8608C37.2485 10.8324 34.0951 7.4233 28.7684 7.4233C23.4417 7.4233 20.2882 10.8324 20.2882 15.8608C20.2882 20.8892 23.4417 24.2983 28.7684 24.2983ZM28.811 19.9517C27.2343 19.9517 26.2968 18.3857 26.2968 15.8182C26.2968 13.2507 27.2343 11.6847 28.811 11.6847C30.3025 11.6847 31.24 13.2507 31.24 15.8182C31.24 18.3857 30.3025 19.9517 28.811 19.9517ZM40.8348 24H46.7155V7.63636H40.8348V24ZM43.7752 5.93182C45.3732 5.93182 46.6729 4.72798 46.6729 3.24716C46.6729 1.76633 45.3732 0.5625 43.7752 0.5625C42.1772 0.5625 40.8775 1.76633 40.8775 3.24716C40.8775 4.72798 42.1772 5.93182 43.7752 5.93182ZM56.7925 14.7955C56.8031 13.1761 57.7193 12.196 59.1788 12.196C60.6597 12.196 61.5332 13.1761 61.5226 14.7955V24H67.4033V13.5597C67.4139 10.0014 65.1661 7.4233 61.693 7.4233C59.2854 7.4233 57.3784 8.6804 56.6646 10.7472H56.4942V7.63636H50.9118V24H56.7925V14.7955ZM77.387 2.18182H71.5063V24H77.387V2.18182ZM89.4242 24.2983C93.9625 24.2983 96.8816 22.125 97.4355 18.7159H92.0662C91.7253 19.6428 90.7559 20.1648 89.552 20.1648C87.8049 20.1648 86.7821 19.0142 86.7821 17.4375V17.1818H97.4355V15.8182C97.4355 10.6087 94.2395 7.4233 89.2963 7.4233C84.2253 7.4233 80.9867 10.7898 80.9867 15.8608C80.9867 21.1555 84.1827 24.2983 89.4242 24.2983ZM86.7821 13.9432C86.8141 12.5263 87.986 11.5568 89.4242 11.5568C90.8837 11.5568 91.9917 12.5369 92.0236 13.9432H86.7821ZM106.916 14.7955C106.927 13.1761 107.843 12.196 109.302 12.196C110.783 12.196 111.657 13.1761 111.646 14.7955V24H117.527V13.5597C117.537 10.0014 115.289 7.4233 111.816 7.4233C109.409 7.4233 107.502 8.6804 106.788 10.7472H106.618V7.63636H101.035V24H106.916V14.7955Z" fill="#4285F4"/>
</svg>
