<svg width="95" height="21" viewBox="0 0 95 21" fill="none" xmlns="http://www.w3.org/2000/svg">
<path d="M7.67045 20.2663C11.3015 20.2663 13.5831 18.1357 13.7607 15.0018H10.1918C9.96982 16.4577 9.01101 17.2745 7.71484 17.2745C5.94815 17.2745 4.80291 15.7919 4.80291 13.1818C4.80291 10.6072 5.95703 9.13352 7.71484 9.13352C9.09979 9.13352 9.98757 10.0479 10.1918 11.4062H13.7607C13.6009 8.25462 11.2127 6.18608 7.6527 6.18608C3.51562 6.18608 0.958807 9.05362 0.958807 13.2351C0.958807 17.381 3.47124 20.2663 7.67045 20.2663ZM23.3433 20.2663C27.4804 20.2663 30.055 17.4343 30.055 13.2351C30.055 9.00923 27.4804 6.18608 23.3433 6.18608C19.2062 6.18608 16.6317 9.00923 16.6317 13.2351C16.6317 17.4343 19.2062 20.2663 23.3433 20.2663ZM23.3611 17.3366C21.4523 17.3366 20.4758 15.5877 20.4758 13.2085C20.4758 10.8292 21.4523 9.07138 23.3611 9.07138C25.2343 9.07138 26.2108 10.8292 26.2108 13.2085C26.2108 15.5877 25.2343 17.3366 23.3611 17.3366ZM33.5141 20H37.2961V6.36364H33.5141V20ZM35.414 4.60582C36.5415 4.60582 37.4648 3.74467 37.4648 2.68821C37.4648 1.64062 36.5415 0.779473 35.414 0.779473C34.2954 0.779473 33.3721 1.64062 33.3721 2.68821C33.3721 3.74467 34.2954 4.60582 35.414 4.60582ZM45.1076 12.1165C45.1165 10.3587 46.1641 9.32884 47.6911 9.32884C49.2092 9.32884 50.1236 10.3232 50.1147 11.9922V20H53.8967V11.3175C53.8967 8.1392 52.0323 6.18608 49.1914 6.18608C47.1673 6.18608 45.7024 7.1804 45.0898 8.76953H44.93V6.36364H41.3256V20H45.1076V12.1165ZM61.6594 1.81818H57.8774V20H61.6594V1.81818ZM71.9034 20.2663C75.277 20.2663 77.5497 18.6239 78.0824 16.0938L74.5845 15.8629C74.2028 16.9016 73.2262 17.4432 71.9656 17.4432C70.0746 17.4432 68.8761 16.1914 68.8761 14.1584V14.1495H78.1623V13.1108C78.1623 8.47656 75.3569 6.18608 71.7525 6.18608C67.7397 6.18608 65.1385 9.03587 65.1385 13.244C65.1385 17.5675 67.7042 20.2663 71.9034 20.2663ZM68.8761 11.8058C68.956 10.2521 70.1367 9.00923 71.8146 9.00923C73.457 9.00923 74.5934 10.1811 74.6023 11.8058H68.8761ZM85.4123 12.1165C85.4212 10.3587 86.4688 9.32884 87.9957 9.32884C89.5138 9.32884 90.4283 10.3232 90.4194 11.9922V20H94.2013V11.3175C94.2013 8.1392 92.337 6.18608 89.4961 6.18608C87.4719 6.18608 86.0071 7.1804 85.3945 8.76953H85.2347V6.36364H81.6303V20H85.4123V12.1165Z" fill="#F8BC05"/>
</svg>
