<?xml version="1.0" encoding="UTF-8"?>
<svg xmlns="http://www.w3.org/2000/svg" xmlns:xlink="http://www.w3.org/1999/xlink" width="128pt" height="128pt" viewBox="0 0 128 128" version="1.1">
<g id="surface1">
<path style=" stroke:none;fill-rule:nonzero;fill:rgb(96.862745%,57.647059%,10.196078%);fill-opacity:1;" d="M 126.085938 48.53125 C 134.636719 82.808594 113.765625 117.539062 79.46875 126.085938 C 45.175781 134.628906 10.460938 113.769531 1.921875 79.480469 C -6.621094 45.191406 14.230469 10.460938 48.519531 1.921875 C 82.808594 -6.621094 117.539062 14.234375 126.085938 48.53125 Z M 126.085938 48.53125 "/>
<path style=" stroke:none;fill-rule:nonzero;fill:rgb(100%,100%,100%);fill-opacity:1;" d="M 84.640625 42.699219 C 81.765625 34.582031 73.890625 33.582031 64.625 35.050781 L 61.753906 23.511719 L 54.730469 25.265625 L 57.527344 36.5 C 55.679688 36.960938 53.800781 37.464844 51.9375 37.972656 L 49.117188 26.667969 L 42.097656 28.417969 L 44.976562 39.945312 L 30.824219 43.5 L 32.695312 51 C 32.695312 51 37.855469 49.605469 37.792969 49.722656 C 40.640625 49.015625 41.976562 50.4375 42.601562 51.792969 L 50.480469 83.398438 C 50.578125 84.324219 50.40625 85.882812 48.417969 86.378906 C 48.53125 86.433594 43.3125 87.644531 43.3125 87.644531 L 44.011719 96.390625 L 58.175781 92.902344 L 61.089844 104.570312 L 68.105469 102.824219 L 65.226562 91.277344 C 67.167969 90.835938 69.03125 90.386719 70.847656 89.933594 L 73.710938 101.425781 L 80.734375 99.671875 L 77.832031 88.023438 C 89.46875 84.402344 96.992188 79.367188 95.253906 68.03125 C 93.855469 58.898438 88.667969 55.960938 81.5625 56.023438 C 85.113281 52.929688 86.75 48.644531 84.636719 42.707031 M 81.03125 70.101562 C 83.203125 78.824219 68.03125 81.554688 63.269531 82.746094 L 59.417969 67.285156 C 64.179688 66.097656 78.761719 61.007812 81.03125 70.101562 M 72.332031 49.101562 C 74.308594 57.039062 61.625 59.21875 57.660156 60.207031 L 54.15625 46.183594 C 58.125 45.195312 70.265625 40.828125 72.328125 49.105469 "/>
</g>
</svg>
