<?xml version="1.0" encoding="UTF-8"?>
<svg xmlns="http://www.w3.org/2000/svg" xmlns:xlink="http://www.w3.org/1999/xlink" width="128pt" height="128pt" viewBox="0 0 128 128" version="1.1">
<g id="surface1">
<path style=" stroke:none;fill-rule:nonzero;fill:rgb(96.862745%,57.647059%,10.196078%);fill-opacity:1;" d="M 126.078125 79.488281 C 117.539062 113.769531 82.804688 134.636719 48.511719 126.078125 C 14.21875 117.523438 -6.636719 82.808594 1.921875 48.523438 C 10.476562 14.238281 45.191406 -6.636719 79.476562 1.921875 C 113.761719 10.476562 134.636719 45.195312 126.078125 79.488281 Z M 126.078125 79.488281 "/>
<path style=" stroke:none;fill-rule:nonzero;fill:rgb(100%,100%,100%);fill-opacity:1;" d="M 92.222656 54.882812 C 93.496094 46.367188 87.011719 41.785156 78.144531 38.734375 L 81.023438 27.195312 L 74 25.445312 L 71.195312 36.679688 C 69.347656 36.21875 67.453125 35.785156 65.570312 35.355469 L 68.386719 24.050781 L 61.367188 22.300781 L 58.496094 33.832031 L 44.332031 30.324219 L 42.460938 37.824219 C 42.460938 37.824219 47.671875 39.019531 47.5625 39.09375 C 50.40625 39.804688 50.921875 41.683594 50.835938 43.175781 L 42.957031 74.78125 C 42.605469 75.644531 41.726562 76.941406 39.738281 76.445312 C 39.808594 76.546875 34.632812 75.164062 34.632812 75.164062 L 31.144531 83.214844 L 45.289062 86.785156 L 42.382812 98.457031 L 49.398438 100.207031 L 52.277344 88.660156 C 54.199219 89.179688 56.054688 89.660156 57.871094 90.113281 L 55.003906 101.605469 L 62.027344 103.355469 L 64.933594 91.707031 C 76.910156 93.972656 85.917969 93.058594 89.703125 82.234375 C 92.757812 73.511719 89.550781 68.484375 83.25 65.203125 C 87.839844 64.140625 91.296875 61.121094 92.21875 54.886719 M 76.171875 77.382812 C 73.996094 86.105469 59.320312 81.390625 54.554688 80.207031 L 58.414062 64.75 C 63.171875 65.9375 78.4375 68.289062 76.175781 77.382812 M 78.351562 54.757812 C 76.371094 62.695312 64.148438 58.664062 60.183594 57.671875 L 63.675781 43.648438 C 67.640625 44.640625 80.410156 46.484375 78.347656 54.757812 "/>
</g>
</svg>
