<?xml version="1.0" encoding="UTF-8"?>
<svg xmlns="http://www.w3.org/2000/svg" xmlns:xlink="http://www.w3.org/1999/xlink" width="128pt" height="128pt" viewBox="0 0 128 128" version="1.1">
<g id="surface1">
<path style=" stroke:none;fill-rule:nonzero;fill:rgb(100%,100%,100%);fill-opacity:1;" d="M 64.417969 65.445312 L 74.257812 61.847656 L 76.707031 52.648438 L 76.625 52.421875 L 66.933594 55.960938 L 73.914062 29.679688 L 54.121094 29.679688 L 44.988281 63.976562 L 37.367188 66.757812 L 34.847656 76.246094 L 42.460938 73.464844 L 37.085938 93.679688 L 89.769531 93.679688 L 93.148438 81.097656 L 60.261719 81.097656 L 64.417969 65.445312 "/>
<path style=" stroke:none;fill-rule:nonzero;fill:rgb(74.509804%,74.509804%,74.509804%);fill-opacity:1;" d="M 64 0 C 28.652344 0 0 28.652344 0 64 C 0 99.347656 28.652344 128 64 128 C 99.347656 128 128 99.347656 128 64 C 128 28.652344 99.347656 0 64 0 Z M 89.769531 93.679688 L 37.085938 93.679688 L 42.460938 73.464844 L 34.847656 76.246094 L 37.367188 66.757812 L 44.988281 63.976562 L 54.121094 29.679688 L 73.914062 29.679688 L 66.933594 55.960938 L 76.625 52.421875 L 76.707031 52.648438 L 74.257812 61.847656 L 64.417969 65.445312 L 60.257812 81.097656 L 93.144531 81.097656 Z M 89.769531 93.679688 "/>
</g>
</svg>
