<?xml version="1.0" encoding="UTF-8"?>
<svg xmlns="http://www.w3.org/2000/svg" xmlns:xlink="http://www.w3.org/1999/xlink" width="128pt" height="128pt" viewBox="0 0 128 128" version="1.1">
<g id="surface1">
<path style=" stroke:none;fill-rule:nonzero;fill:rgb(100%,2.352941%,3.921569%);fill-opacity:1;" d="M 123.101562 38.558594 C 117.101562 33.019531 108.800781 24.558594 102.039062 18.558594 L 101.640625 18.28125 C 100.972656 17.746094 100.222656 17.328125 99.421875 17.039062 C 83.121094 14 7.261719 -0.179688 5.78125 0 C 5.367188 0.0585938 4.96875 0.207031 4.621094 0.441406 L 4.238281 0.738281 C 3.773438 1.214844 3.417969 1.789062 3.199219 2.421875 L 3.101562 2.679688 L 3.101562 4.320312 C 11.640625 28.101562 45.359375 106 52 124.28125 C 52.398438 125.519531 53.160156 127.878906 54.578125 128 L 54.898438 128 C 55.660156 128 58.898438 123.71875 58.898438 123.71875 C 58.898438 123.71875 116.820312 53.480469 122.679688 46 C 123.4375 45.078125 124.109375 44.085938 124.679688 43.039062 C 124.976562 41.371094 124.378906 39.671875 123.101562 38.558594 Z M 73.761719 46.738281 L 98.480469 26.238281 L 112.980469 39.601562 Z M 64.160156 45.398438 L 21.601562 10.519531 L 90.460938 23.21875 Z M 68 54.539062 L 111.558594 47.519531 L 61.761719 107.519531 Z M 15.820312 14 L 60.601562 52 L 54.121094 107.558594 Z M 15.820312 14 "/>
</g>
</svg>
