<?xml version="1.0" encoding="UTF-8"?>
<svg xmlns="http://www.w3.org/2000/svg" xmlns:xlink="http://www.w3.org/1999/xlink" width="128pt" height="128pt" viewBox="0 0 128 128" version="1.1">
<g id="surface1">
<path style=" stroke:none;fill-rule:nonzero;fill:rgb(23.921569%,71.372549%,82.745098%);fill-opacity:1;" d="M 105.71875 35.953125 L 73.992188 4.128906 C 68.503906 -1.375 59.535156 -1.375 54.066406 4.128906 L 22.359375 35.890625 C 20.535156 37.71875 20.535156 40.722656 22.359375 42.550781 L 31.976562 52.195312 L 38.371094 58.117188 C 40.257812 59.882812 43.1875 59.882812 45.074219 58.117188 L 57.878906 46.25 C 61.378906 42.992188 66.800781 42.992188 70.304688 46.25 L 83.109375 58.117188 C 84.988281 59.882812 87.914062 59.882812 89.792969 58.117188 L 96.183594 52.191406 L 105.722656 42.636719 C 107.566406 40.789062 107.566406 37.800781 105.722656 35.953125 "/>
<path style=" stroke:none;fill-rule:nonzero;fill:rgb(88.627451%,88.235294%,88.235294%);fill-opacity:1;" d="M 4.296875 74 L 54.042969 123.871094 C 59.535156 129.375 68.503906 129.375 73.972656 123.871094 L 123.71875 74 C 132.351562 65.34375 126.277344 62.800781 119.949219 56.792969 L 112.152344 49.378906 C 110.265625 47.59375 107.351562 47.613281 105.445312 49.378906 L 92.644531 61.246094 C 89.140625 64.503906 83.71875 64.503906 80.21875 61.246094 L 67.414062 49.378906 C 65.535156 47.613281 62.605469 47.613281 60.726562 49.378906 L 47.925781 61.246094 C 44.421875 64.503906 39 64.503906 35.5 61.246094 L 22.695312 49.378906 C 20.808594 47.613281 17.875 47.613281 15.988281 49.378906 L 8.820312 56.015625 C 2.238281 62.152344 -4.714844 64.964844 4.296875 74 "/>
</g>
</svg>
