<?xml version="1.0" encoding="utf-8"?>
<svg width="200px"	 version="1.1" id="coinlen" xmlns="http://www.w3.org/2000/svg" xmlns:xlink="http://www.w3.org/1999/xlink" x="0px" y="0px"
	 viewBox="0 0 595.21 186.47" style="enable-background:new 0 0 595.21 186.47;" xml:space="preserve">
<style type="text/css">
	.st0{clip-path:url(#SVGID_20_);fill:url(#SVGID_21_);}
	.st1{clip-path:url(#SVGID_23_);fill:url(#SVGID_24_);}
	.st2{clip-path:url(#SVGID_26_);fill:url(#SVGID_27_);}
	.st3{clip-path:url(#SVGID_29_);fill:url(#SVGID_30_);}
	.st4{clip-path:url(#SVGID_32_);fill:url(#SVGID_33_);}
	.st5{clip-path:url(#SVGID_35_);fill:url(#SVGID_36_);}
	.st6{clip-path:url(#SVGID_38_);fill:url(#SVGID_39_);}
	.st7{clip-path:url(#SVGID_41_);fill:url(#SVGID_42_);}
	.st8{clip-path:url(#SVGID_44_);fill:url(#SVGID_45_);}
	.st9{clip-path:url(#SVGID_47_);fill:url(#SVGID_48_);}
	.st10{clip-path:url(#SVGID_50_);fill:url(#SVGID_51_);}
	.st11{clip-path:url(#SVGID_53_);fill:url(#SVGID_54_);}
	.st12{clip-path:url(#SVGID_56_);fill:url(#SVGID_57_);}
	.st13{clip-path:url(#SVGID_59_);fill:url(#SVGID_60_);}
	.st14{clip-path:url(#SVGID_62_);fill:url(#SVGID_63_);}
	.st15{clip-path:url(#SVGID_65_);fill:url(#SVGID_66_);}
	.st16{clip-path:url(#SVGID_68_);fill:url(#SVGID_69_);}
	.st17{clip-path:url(#SVGID_71_);fill:url(#SVGID_72_);}
	.st18{clip-path:url(#SVGID_74_);fill:url(#SVGID_75_);}
	.st19{clip-path:url(#SVGID_77_);fill:url(#SVGID_78_);}
	.st20{clip-path:url(#SVGID_80_);fill:url(#SVGID_81_);}
	.st21{clip-path:url(#SVGID_83_);fill:url(#SVGID_84_);}
	.st22{clip-path:url(#SVGID_86_);fill:url(#SVGID_87_);}
	.st23{clip-path:url(#SVGID_89_);fill:url(#SVGID_90_);}
	.st24{clip-path:url(#SVGID_92_);fill:url(#SVGID_93_);}
	.st25{clip-path:url(#SVGID_95_);fill:url(#SVGID_96_);}
	.st26{clip-path:url(#SVGID_98_);fill:url(#SVGID_99_);}
	.st27{clip-path:url(#SVGID_101_);fill:url(#SVGID_102_);}
	.st28{clip-path:url(#SVGID_104_);fill:url(#SVGID_105_);}
	.st29{clip-path:url(#SVGID_107_);fill:url(#SVGID_108_);}
	.st30{clip-path:url(#SVGID_110_);fill:url(#SVGID_111_);}
	.st31{clip-path:url(#SVGID_113_);fill:url(#SVGID_114_);}
	.st32{clip-path:url(#SVGID_116_);fill:url(#SVGID_117_);}
	.st33{clip-path:url(#SVGID_119_);fill:url(#SVGID_120_);}
	.st34{clip-path:url(#SVGID_122_);fill:url(#SVGID_123_);}
	.st35{clip-path:url(#SVGID_125_);fill:url(#SVGID_126_);}
	.st36{clip-path:url(#SVGID_128_);fill:url(#SVGID_129_);}
	.st37{clip-path:url(#SVGID_131_);fill:url(#SVGID_132_);}
	.st38{clip-path:url(#SVGID_134_);fill:url(#SVGID_135_);}
	.st39{clip-path:url(#SVGID_137_);fill:url(#SVGID_138_);}
</style>
<g>
	<g>
		<defs>
			<path id="SVGID_1_" d="M10.98,93.24c0,2.68,0.11,5.33,0.34,7.96c0.14,1.7,2.12,2.56,3.45,1.49l57.91-46.5l0.02,0.02
				c8.49-7.24,19.5-11.62,31.53-11.62c15.02,0,28.45,6.81,37.37,17.5c0.93,1.11,2.57,1.3,3.7,0.4l30.75-24.45
				c1.16-0.92,1.34-2.61,0.4-3.76C159.41,13.44,133.56,0.11,104.58,0c-0.12,0-0.24,0-0.35,0C53.19,0,10.98,42.16,10.98,93.24"/>
		</defs>
		<use xlink:href="#SVGID_1_"  style="overflow:visible;fill:#5A67D8;"/>
		<clipPath id="SVGID_2_">
			<use xlink:href="#SVGID_1_"  style="overflow:visible;"/>
		</clipPath>
	</g>
	<g>
		<defs>
			<path id="SVGID_3_" d="M19.67,93.23c0,1.81,0.06,3.6,0.17,5.37l52.83-42.42l0.02,0.02c8.49-7.24,19.5-11.62,31.53-11.62
				c15.02,0,28.45,6.81,37.37,17.5c0.93,1.11,2.57,1.3,3.7,0.4l26.03-20.7c-15.46-20.13-39.76-33.11-67.1-33.11
				C57.52,8.69,19.67,46.54,19.67,93.23"/>
		</defs>
		<use xlink:href="#SVGID_3_"  style="overflow:visible;fill:#5A67D8;"/>
		<clipPath id="SVGID_4_">
			<use xlink:href="#SVGID_3_"  style="overflow:visible;"/>
		</clipPath>
	</g>
	<g>
		<defs>
			<path id="SVGID_5_" d="M216.98,23.42l-9.05,16.11l-5.02-5.96l-99.59,79.31L70.9,74.69L0,131.63c1.97,2.46,5.55,2.86,8.01,0.89
				l2.82-2.25c2.88-2.3,7.17-1.32,8.71,2.02c14.78,31.98,47.13,54.18,84.67,54.18c28.96,0,54.83-13.21,71.93-33.92
				c1.77-2.15,1.35-5.36-0.9-7l-28.19-20.66c-2.01-1.47-4.82-1.21-6.48,0.66c-8.91,10.02-21.89,16.33-36.36,16.33
				c-25.39,0-46.23-19.46-48.44-44.28c-0.17-1.92,0.62-3.79,2.12-5l13-10.4l32.42,38.21l99.5-79.26l7.43,8.23l7.53-26.64
				L216.98,23.42z"/>
		</defs>
		<use xlink:href="#SVGID_5_"  style="overflow:visible;fill:#5A67D8;"/>
		<clipPath id="SVGID_6_">
			<use xlink:href="#SVGID_5_"  style="overflow:visible;"/>
		</clipPath>
	</g>
	<g>
		<defs>
			<path id="SVGID_7_" d="M211.52,120.13c-1.92-0.93-3.57-2.18-4.92-3.75c-1.36-1.57-2.41-3.37-3.16-5.41
				c-0.75-2.03-1.12-4.16-1.12-6.37v-0.21c0-2.21,0.36-4.32,1.07-6.32c0.71-2,1.75-3.77,3.11-5.3c1.36-1.53,3-2.77,4.93-3.69
				c1.93-0.93,4.07-1.4,6.43-1.4c2.42,0,4.6,0.47,6.53,1.4c1.93,0.93,3.57,2.18,4.93,3.75c1.35,1.57,2.41,3.37,3.16,5.41
				c0.75,2.04,1.12,4.16,1.12,6.37v0.21c0,2.22-0.36,4.32-1.07,6.32c-0.72,2-1.75,3.77-3.11,5.3c-1.35,1.53-3,2.77-4.92,3.69
				c-1.93,0.93-4.07,1.39-6.43,1.39C215.63,121.52,213.45,121.06,211.52,120.13 M201.89,68.57c-5,2.03-9.33,4.82-13.01,8.35
				c-3.68,3.54-6.57,7.68-8.68,12.42c-2.1,4.75-3.16,9.84-3.16,15.26v0.21c0,5.43,1.03,10.52,3.1,15.26
				c2.07,4.75,4.95,8.87,8.62,12.37c3.68,3.5,8,6.25,12.96,8.25c4.96,2,10.33,3,16.11,3c5.78,0,11.17-1.02,16.17-3.05
				c5-2.03,9.33-4.82,13.01-8.35c3.67-3.54,6.57-7.67,8.67-12.42c2.11-4.75,3.16-9.83,3.16-15.26v-0.21c0-5.43-1.04-10.51-3.1-15.26
				c-2.07-4.75-4.95-8.87-8.62-12.36c-3.68-3.5-8-6.25-12.96-8.25c-4.97-2-10.34-3-16.12-3C212.27,65.52,206.88,66.54,201.89,68.57"
				/>
		</defs>
		<use xlink:href="#SVGID_7_"  style="overflow:visible;fill:#5A67D8;"/>
		<clipPath id="SVGID_8_">
			<use xlink:href="#SVGID_7_"  style="overflow:visible;"/>
		</clipPath>
	</g>
	<g>
		<defs>
			<rect id="SVGID_9_" x="265.92" y="67.13" width="25.06" height="74.96"/>
		</defs>
		<use xlink:href="#SVGID_9_"  style="overflow:visible;fill:#5A67D8;"/>
		<clipPath id="SVGID_10_">
			<use xlink:href="#SVGID_9_"  style="overflow:visible;"/>
		</clipPath>
	</g>
	<g>
		<defs>
			<polygon id="SVGID_11_" points="349.87,67.12 349.87,100.22 323.21,67.12 299.76,67.12 299.76,142.09 324.6,142.09 324.6,107.5 
				352.45,142.09 374.72,142.09 374.72,67.12 			"/>
		</defs>
		<use xlink:href="#SVGID_11_"  style="overflow:visible;fill:#5A67D8;"/>
		<clipPath id="SVGID_12_">
			<use xlink:href="#SVGID_11_"  style="overflow:visible;"/>
		</clipPath>
	</g>
	<g>
		<defs>
			<polygon id="SVGID_13_" points="383.29,67.12 383.29,142.09 443.57,142.09 443.57,120.67 408.35,120.67 408.35,67.12 			"/>
		</defs>
		<use xlink:href="#SVGID_13_"  style="overflow:visible;fill:#5A67D8;"/>
		<clipPath id="SVGID_14_">
			<use xlink:href="#SVGID_13_"  style="overflow:visible;"/>
		</clipPath>
	</g>
	<g>
		<defs>
			<polygon id="SVGID_15_" points="449.04,67.12 449.04,142.09 513.5,142.09 513.5,121.52 473.67,121.52 473.67,113.39 
				510.29,113.39 510.29,95.29 473.67,95.29 473.67,87.68 512.97,87.68 512.97,67.12 			"/>
		</defs>
		<use xlink:href="#SVGID_15_"  style="overflow:visible;fill:#5A67D8;"/>
		<clipPath id="SVGID_16_">
			<use xlink:href="#SVGID_15_"  style="overflow:visible;"/>
		</clipPath>
	</g>
	<g>
		<defs>
			<polygon id="SVGID_17_" points="570.37,67.12 570.37,100.22 543.7,67.12 520.25,67.12 520.25,142.09 545.09,142.09 545.09,107.5 
				572.93,142.09 595.21,142.09 595.21,67.12 			"/>
		</defs>
		<use xlink:href="#SVGID_17_"  style="overflow:visible;fill:#5A67D8;"/>
		<clipPath id="SVGID_18_">
			<use xlink:href="#SVGID_17_"  style="overflow:visible;"/>
		</clipPath>
	</g>
</g>
</svg>
