<?xml version="1.0" encoding="UTF-8"?>
<svg xmlns="http://www.w3.org/2000/svg" xmlns:xlink="http://www.w3.org/1999/xlink" width="127pt" height="118pt" viewBox="0 0 127 118" version="1.1">
<g id="surface1">
<path style=" stroke:none;fill-rule:nonzero;fill:rgb(23.529412%,78.431373%,78.431373%);fill-opacity:1;" d="M 61.941406 0.347656 C 64.710938 -1.101562 68.089844 2.265625 66.617188 5.046875 C 65.765625 7.3125 62.523438 7.914062 60.871094 6.1875 C 59.117188 4.527344 59.691406 1.25 61.941406 0.347656 M 32.167969 3.574219 C 33.851562 2.878906 35.980469 4.429688 35.808594 6.273438 C 35.988281 8.273438 33.554688 9.746094 31.839844 8.792969 C 29.570312 7.910156 29.828125 4.203125 32.167969 3.574219 M 93.144531 8.851562 C 90.519531 8.53125 90.101562 4.375 92.632812 3.539062 C 94.59375 2.578125 96.394531 4.382812 96.683594 6.253906 C 96.269531 7.847656 94.941406 9.3125 93.144531 8.851562 M 38.945312 16.316406 C 41.753906 14.53125 45.765625 17.191406 45.332031 20.476562 C 45.1875 23.789062 40.808594 25.710938 38.339844 23.46875 C 35.949219 21.710938 36.3125 17.671875 38.945312 16.316406 M 81.859375 18.214844 C 83.113281 14.964844 88.195312 14.867188 89.621094 18.03125 C 91.03125 20.492188 89.296875 23.542969 86.78125 24.378906 C 83.453125 25.003906 80.289062 21.382812 81.859375 18.214844 M 58.355469 24.195312 C 58.328125 21.398438 60.859375 19.320312 63.5 19.128906 C 65.25 19.480469 67.160156 20.230469 67.910156 22.007812 C 69.3125 24.460938 68.066406 27.835938 65.539062 28.960938 C 64.382812 29.613281 63.011719 29.367188 61.753906 29.292969 C 59.828125 28.339844 58.207031 26.476562 58.355469 24.195312 M 14.082031 28.265625 C 16.648438 26.675781 20.113281 29.574219 19.140625 32.378906 C 18.605469 34.804688 15.363281 35.792969 13.507812 34.242188 C 11.527344 32.792969 11.84375 29.300781 14.082031 28.265625 M 109.15625 28.257812 C 111.335938 26.558594 114.929688 28.507812 114.671875 31.277344 C 114.816406 33.796875 111.707031 35.699219 109.546875 34.402344 C 107.164062 33.324219 106.921875 29.640625 109.15625 28.257812 M 70.808594 33.28125 C 74.402344 31.984375 78.671875 33.535156 80.722656 36.761719 C 83.425781 40.699219 81.988281 46.703125 77.792969 48.960938 C 73.445312 51.636719 67.097656 49.371094 65.492188 44.488281 C 63.671875 40.121094 66.328125 34.652344 70.808594 33.28125 M 49.710938 33.710938 C 53.699219 31.820312 59.058594 33.40625 60.984375 37.503906 C 63.25 41.496094 61.5 47.050781 57.449219 49.109375 C 53.394531 51.425781 47.675781 49.667969 45.710938 45.386719 C 43.511719 41.246094 45.464844 35.617188 49.710938 33.710938 M 28.589844 40.972656 C 28.894531 38.390625 31.316406 36.710938 33.757812 36.539062 C 36.390625 36.855469 38.496094 38.914062 38.78125 41.59375 C 38.609375 44.246094 36.570312 46.835938 33.773438 46.820312 C 30.699219 47.085938 28.003906 44.011719 28.589844 40.972656 M 90.976562 37.097656 C 94.136719 35.25 98.519531 37.941406 98.378906 41.589844 C 98.597656 45.453125 93.742188 48.175781 90.601562 45.910156 C 87.335938 44.019531 87.589844 38.707031 90.976562 37.097656 M 41.128906 50.71875 C 44.820312 49.695312 49.042969 51.445312 50.855469 54.859375 C 52.835938 58.296875 52.027344 63.066406 48.945312 65.585938 C 44.996094 69.28125 37.707031 67.800781 35.601562 62.753906 C 33.1875 58.132812 36.121094 51.933594 41.128906 50.71875 M 81.140625 50.699219 C 84.730469 49.667969 88.945312 51.058594 90.875 54.347656 C 93.425781 58.105469 92.210938 63.71875 88.410156 66.140625 C 84.429688 68.957031 78.269531 67.476562 76.078125 63.078125 C 73.425781 58.523438 76.09375 52.089844 81.140625 50.699219 M 17.378906 54.988281 C 20.566406 53.777344 24.105469 57.316406 22.8125 60.496094 C 22.023438 63.394531 17.960938 64.464844 15.863281 62.328125 C 13.410156 60.324219 14.320312 55.859375 17.378906 54.988281 M 103.832031 59.605469 C 103.742188 56.945312 105.675781 54.59375 108.386719 54.445312 C 110.570312 54.792969 112.695312 56.566406 112.519531 58.957031 C 112.722656 62.117188 108.9375 64.261719 106.261719 62.777344 C 105.007812 62.136719 104.363281 60.84375 103.832031 59.605469 M 1.695312 56.550781 C 3.613281 55.707031 5.988281 57.378906 5.550781 59.523438 C 5.445312 61.949219 1.882812 62.882812 0.574219 60.855469 C -0.582031 59.445312 0.113281 57.277344 1.695312 56.550781 Z M 122.691406 56.5 C 124.042969 55.535156 126.210938 56.230469 126.746094 57.816406 C 127.652344 59.550781 125.988281 61.925781 124.046875 61.632812 C 121.324219 61.882812 120.441406 57.707031 122.691406 56.5 M 51.550781 68.148438 C 56.601562 66.828125 62.027344 71.0625 62.058594 76.289062 C 62.390625 81.574219 57.042969 86.257812 51.875 85.039062 C 47.878906 84.390625 44.746094 80.523438 44.875 76.460938 C 44.863281 72.578125 47.777344 68.96875 51.550781 68.148438 M 71.546875 68.136719 C 76.671875 66.699219 82.261719 71.007812 82.183594 76.355469 C 82.453125 81.542969 77.273438 86.070312 72.210938 85.039062 C 67.449219 84.421875 63.9375 79.160156 65.265625 74.511719 C 65.9375 71.414062 68.511719 68.898438 71.546875 68.136719 M 32.992188 71.355469 C 36.539062 70.746094 39.863281 74.726562 38.425781 78.113281 C 37.375 81.722656 32.152344 82.699219 29.84375 79.753906 C 27.136719 76.921875 29.160156 71.746094 32.992188 71.355469 M 91.636719 71.515625 C 94.800781 70.183594 98.679688 72.933594 98.4375 76.386719 C 98.566406 80.183594 93.773438 82.804688 90.679688 80.585938 C 87.179688 78.597656 87.816406 72.738281 91.636719 71.515625 M 108.03125 88.046875 C 106.792969 85.726562 109.039062 82.652344 111.601562 83.082031 C 112.878906 83.058594 113.769531 84.070312 114.585938 84.917969 C 114.753906 86.292969 115.035156 87.933594 113.902344 88.992188 C 112.359375 90.957031 108.867188 90.394531 108.03125 88.046875 M 14.070312 83.726562 C 16.464844 82.121094 19.914062 84.515625 19.375 87.332031 C 19.085938 89.820312 15.96875 91.242188 13.914062 89.832031 C 11.707031 88.546875 11.789062 84.894531 14.070312 83.726562 M 61.390625 88.9375 C 64.527344 87.546875 68.519531 90.292969 68.222656 93.765625 C 68.457031 97.601562 63.515625 100.261719 60.449219 97.957031 C 57.042969 95.976562 57.613281 90.15625 61.390625 88.9375 M 39.472656 94.082031 C 42.144531 92.667969 45.726562 95.109375 45.484375 98.113281 C 45.566406 100.582031 43.171875 102.683594 40.75 102.320312 C 38.742188 102.277344 37.433594 100.46875 36.792969 98.75 C 36.824219 96.875 37.59375 94.789062 39.472656 94.082031 M 83.867188 94.125 C 86.617188 92.417969 90.519531 94.867188 90.257812 98.082031 C 90.328125 101.441406 85.917969 103.59375 83.359375 101.386719 C 80.886719 99.65625 81.1875 95.5 83.867188 94.125 M 91.589844 113.316406 C 90.367188 111.457031 91.804688 109.21875 93.789062 108.792969 C 95.382812 109.121094 97.070312 110.328125 96.734375 112.1875 C 96.503906 114.703125 92.84375 115.476562 91.589844 113.316406 M 30.304688 111.703125 C 30.792969 110.230469 31.96875 108.765625 33.695312 109.148438 C 36.207031 109.328125 36.953125 113.136719 34.753906 114.3125 C 32.777344 115.652344 30.480469 113.816406 30.304688 111.703125 M 59.871094 113.390625 C 60.351562 111.214844 63.15625 110.152344 65.007812 111.3125 C 66.230469 111.839844 66.585938 113.214844 66.898438 114.382812 C 66.730469 114.988281 66.582031 115.597656 66.433594 116.207031 C 65.675781 117.109375 64.703125 118.011719 63.445312 117.980469 C 61.101562 118.253906 58.992188 115.59375 59.871094 113.390625 "/>
</g>
</svg>
