<?xml version="1.0" encoding="UTF-8"?>
<svg xmlns="http://www.w3.org/2000/svg" xmlns:xlink="http://www.w3.org/1999/xlink" width="128pt" height="128pt" viewBox="0 0 128 128" version="1.1">
<g id="surface1">
<path style=" stroke:none;fill-rule:nonzero;fill:rgb(0%,0%,0%);fill-opacity:1;" d="M 0 64 L 0 128 L 128 128 L 128 0 L 0 0 Z M 92.992188 35.488281 C 93.535156 35.808594 94.273438 36.511719 94.625 37.023438 C 95.230469 37.886719 95.230469 37.984375 94.753906 39.519531 C 94.144531 41.40625 92.671875 42.558594 90.945312 42.558594 C 89.535156 42.558594 87.425781 41.183594 87.167969 40.097656 C 86.558594 37.726562 88.542969 34.878906 90.785156 34.878906 C 91.457031 34.878906 92.449219 35.167969 92.992188 35.488281 Z M 30.113281 48.800781 C 31.199219 49.375 32.320312 51.007812 32.320312 52.097656 C 32.320312 52.960938 31.550781 54.910156 30.976562 55.457031 C 30.398438 56 27.679688 56.128906 26.527344 55.679688 C 25.953125 55.425781 25.375 54.785156 24.960938 53.921875 C 24.414062 52.769531 24.351562 52.320312 24.609375 51.199219 C 24.960938 49.632812 25.246094 49.246094 26.65625 48.734375 C 28.097656 48.222656 28.992188 48.222656 30.113281 48.800781 Z M 67.679688 58.558594 C 70.910156 60.769531 71.390625 65.855469 68.640625 68.640625 C 65.695312 71.550781 60.769531 70.976562 58.367188 67.457031 C 57.601562 66.304688 57.441406 65.761719 57.441406 64 C 57.441406 62.175781 57.566406 61.726562 58.496094 60.414062 C 60.703125 57.214844 64.609375 56.449219 67.679688 58.558594 Z M 57.601562 97.054688 C 58.910156 97.503906 60.160156 99.230469 60.160156 100.542969 C 60.160156 101.792969 59.457031 103.039062 58.273438 103.902344 C 55.902344 105.664062 52.511719 103.839844 52.480469 100.769531 C 52.480469 99.359375 52.703125 98.878906 54.238281 97.054688 C 54.65625 96.574219 56.160156 96.574219 57.601562 97.054688 Z M 57.601562 97.054688 "/>
</g>
</svg>
