<?xml version="1.0" encoding="UTF-8"?>
<svg xmlns="http://www.w3.org/2000/svg" xmlns:xlink="http://www.w3.org/1999/xlink" width="128pt" height="128pt" viewBox="0 0 128 128" version="1.1">
<g id="surface1">
<path style=" stroke:none;fill-rule:nonzero;fill:rgb(0%,0%,0%);fill-opacity:1;" d="M 126.6875 51.121094 C 125.832031 46.980469 124.582031 42.972656 122.941406 39.097656 C 121.363281 35.285156 119.328125 31.671875 117.027344 28.1875 C 114.726562 24.773438 112.097656 21.617188 109.207031 18.726562 C 106.316406 15.835938 103.164062 13.207031 99.746094 10.90625 C 96.328125 8.609375 92.648438 6.636719 88.835938 4.992188 C 84.960938 3.351562 80.953125 2.101562 76.8125 1.25 C 72.609375 0.394531 68.269531 -0.0664062 63.933594 -0.0664062 C 59.597656 -0.0664062 55.328125 0.460938 51.121094 1.3125 C 46.980469 2.167969 42.972656 3.417969 39.097656 5.058594 C 35.285156 6.636719 31.671875 8.671875 28.1875 10.972656 C 24.773438 13.273438 21.617188 15.902344 18.726562 18.792969 C 15.835938 21.683594 13.207031 24.835938 10.90625 28.253906 C 8.609375 31.671875 6.636719 35.351562 4.992188 39.164062 C 3.351562 43.039062 2.101562 47.046875 1.25 51.1875 C 0.394531 55.390625 -0.0664062 59.730469 -0.0664062 64.066406 C -0.0664062 68.402344 0.394531 72.738281 1.25 76.945312 C 2.101562 81.085938 3.351562 85.09375 4.992188 88.96875 C 6.570312 92.78125 8.609375 96.394531 10.90625 99.875 C 13.207031 103.292969 15.835938 106.449219 18.726562 109.339844 C 21.617188 112.230469 24.773438 114.859375 28.1875 117.15625 C 31.605469 119.457031 35.285156 121.429688 39.097656 123.070312 C 42.972656 124.714844 46.980469 125.964844 51.121094 126.816406 C 55.328125 127.671875 59.664062 128.132812 64 128.132812 C 68.335938 128.132812 72.671875 127.671875 76.878906 126.816406 C 81.019531 125.964844 85.027344 124.714844 88.902344 123.070312 C 92.714844 121.496094 96.328125 119.457031 99.8125 117.15625 C 103.226562 114.859375 106.382812 112.230469 109.273438 109.339844 C 112.164062 106.449219 114.792969 103.292969 117.09375 99.875 C 119.390625 96.460938 121.363281 92.78125 123.007812 88.96875 C 124.648438 85.09375 125.898438 81.085938 126.75 76.945312 C 127.605469 72.738281 128.066406 68.402344 128.066406 64.066406 C 128 59.664062 127.539062 55.328125 126.6875 51.121094 Z M 64 119.984375 C 33.050781 119.984375 8.015625 94.882812 8.015625 64 C 8.015625 33.117188 33.117188 8.015625 64 8.015625 C 94.882812 8.015625 119.984375 33.117188 119.984375 64 C 119.984375 94.949219 94.949219 119.984375 64 119.984375 Z M 64 119.984375 "/>
<path style=" stroke:none;fill-rule:nonzero;fill:rgb(0%,0%,0%);fill-opacity:1;" d="M 64.984375 115.1875 L 66.496094 115.1875 C 66.757812 115.1875 67.023438 115.1875 67.285156 115.121094 L 67.351562 115.121094 C 67.613281 115.121094 67.8125 115.121094 68.074219 115.054688 L 68.269531 115.054688 C 68.46875 115.054688 68.664062 115.054688 68.863281 114.988281 L 69.058594 114.988281 C 69.257812 114.988281 69.453125 114.925781 69.714844 114.925781 L 69.847656 114.925781 C 70.109375 114.925781 70.375 114.859375 70.636719 114.859375 C 70.898438 114.859375 71.097656 114.792969 71.359375 114.726562 L 71.492188 114.726562 C 71.6875 114.726562 71.886719 114.660156 72.082031 114.660156 L 72.214844 114.660156 C 72.476562 114.59375 72.671875 114.59375 72.9375 114.53125 C 73.460938 114.464844 73.988281 114.332031 74.449219 114.203125 L 74.578125 114.203125 C 74.777344 114.136719 75.039062 114.136719 75.234375 114.070312 L 75.300781 114.070312 C 75.828125 113.9375 76.289062 113.808594 76.8125 113.675781 C 70.503906 113.871094 65.378906 113.019531 62.160156 112.296875 C 54.933594 110.71875 48.03125 107.894531 42.183594 103.03125 C 32.460938 94.882812 27.464844 83.1875 27.597656 71.554688 C 27.664062 62.882812 30.621094 54.210938 36.597656 47.113281 C 44.089844 38.242188 54.734375 33.578125 65.644531 33.3125 L 67.152344 33.3125 L 67.152344 24.574219 L 65.445312 24.574219 C 62.09375 24.640625 58.808594 25.035156 55.589844 25.757812 C 52.304688 26.480469 49.148438 27.597656 46.128906 28.976562 C 43.039062 30.421875 40.148438 32.195312 37.453125 34.234375 C 34.695312 36.335938 32.132812 38.769531 29.898438 41.460938 C 27.792969 43.957031 25.953125 46.652344 24.445312 49.542969 C 22.933594 52.304688 21.75 55.261719 20.828125 58.285156 C 19.976562 61.242188 19.316406 64.328125 19.054688 67.417969 C 18.988281 68.402344 18.925781 69.324219 18.859375 70.308594 L 18.859375 72.015625 C 18.925781 75.367188 19.316406 78.652344 20.042969 81.871094 C 20.765625 85.15625 21.882812 88.3125 23.261719 91.335938 C 24.902344 94.949219 27.859375 100.269531 32.261719 104.277344 C 40.9375 111.113281 51.910156 115.1875 63.804688 115.1875 Z M 64.984375 115.1875 "/>
<path style=" stroke:none;fill-rule:nonzero;fill:rgb(0%,0%,0%);fill-opacity:1;" d="M 79.308594 106.710938 C 76.289062 106.644531 72.542969 106.183594 69.652344 105.660156 C 56.113281 103.226562 44.484375 94.949219 40.214844 82.464844 C 35.023438 67.285156 42.972656 50.859375 58.085938 45.863281 C 61.042969 44.878906 64 44.417969 67.023438 44.417969 C 70.898438 44.417969 74.777344 45.207031 78.324219 46.652344 L 82.003906 38.832031 C 80.886719 38.375 79.769531 37.980469 78.652344 37.585938 C 74.90625 36.402344 70.964844 35.8125 67.023438 35.8125 C 63.082031 35.8125 59.136719 36.46875 55.390625 37.714844 C 50.59375 39.292969 46.191406 41.855469 42.449219 45.207031 C 40.671875 46.785156 38.964844 48.625 37.519531 50.53125 C 36.074219 52.433594 34.824219 54.472656 33.773438 56.640625 C 32.722656 58.808594 31.867188 61.042969 31.277344 63.34375 C 30.6875 65.644531 30.226562 68.074219 30.09375 70.503906 C 29.765625 75.5 30.421875 80.492188 32.066406 85.222656 C 33.707031 90.019531 36.335938 94.421875 39.949219 98.300781 C 43.171875 101.78125 46.914062 104.410156 51.449219 106.84375 C 56.179688 109.339844 62.027344 110.652344 68.140625 111.507812 C 72.082031 112.03125 77.339844 112.164062 80.425781 112.164062 C 83.121094 111.179688 84.238281 110.71875 85.683594 110.128906 C 86.933594 109.535156 88.179688 108.945312 89.429688 108.222656 C 90.675781 107.5 90.875 107.367188 92.976562 105.988281 C 93.175781 105.855469 93.371094 105.726562 93.503906 105.59375 C 86.273438 106.90625 84.433594 106.84375 79.308594 106.710938 Z M 79.308594 106.710938 "/>
<path style=" stroke:none;fill-rule:nonzero;fill:rgb(0%,0%,0%);fill-opacity:1;" d="M 95.472656 96.984375 C 93.4375 97.117188 90.546875 97.3125 87.261719 97.3125 C 81.414062 97.3125 74.25 96.789062 68.140625 94.75 C 58.675781 91.597656 49.742188 83.515625 49.742188 73.527344 C 49.742188 63.539062 57.824219 55.523438 67.746094 55.523438 C 74.511719 55.523438 80.363281 59.269531 83.449219 64.722656 L 91.269531 60.847656 C 90.019531 58.546875 88.507812 56.445312 86.605469 54.605469 C 84.171875 52.171875 81.28125 50.203125 78.128906 48.886719 C 74.84375 47.507812 71.359375 46.785156 67.746094 46.785156 C 64.132812 46.785156 60.648438 47.507812 57.363281 48.886719 C 54.210938 50.203125 51.316406 52.171875 48.886719 54.605469 C 46.457031 57.035156 44.484375 59.925781 43.171875 63.082031 C 41.789062 66.367188 41.066406 69.847656 41.066406 73.460938 C 41.066406 77.074219 41.855469 80.691406 43.367188 84.105469 C 44.746094 87.128906 46.652344 89.953125 49.085938 92.582031 C 53.355469 97.183594 59.203125 100.863281 65.445312 102.964844 C 71.425781 104.9375 80.230469 105.660156 88.773438 105.066406 C 91.136719 104.9375 92.910156 104.671875 95.933594 104.015625 C 98.824219 101.714844 101.519531 99.089844 103.820312 96.195312 C 101.847656 96.394531 98.101562 96.789062 95.472656 96.984375 Z M 95.472656 96.984375 "/>
</g>
</svg>
