<?xml version="1.0" encoding="UTF-8"?>
<svg xmlns="http://www.w3.org/2000/svg" xmlns:xlink="http://www.w3.org/1999/xlink" width="127pt" height="125pt" viewBox="0 0 127 125" version="1.1">
<g id="surface1">
<path style=" stroke:none;fill-rule:nonzero;fill:rgb(0%,0%,0%);fill-opacity:1;" d="M 0 62.550781 L 0 125.101562 L 126.796875 125.101562 L 126.796875 0 L 0 0 Z M 36.820312 26.09375 C 37.785156 27.011719 38.902344 27.0625 63.347656 27.0625 C 88.757812 27.0625 88.808594 27.0625 90.332031 25.941406 C 93.375 23.640625 97.480469 25.171875 98.140625 28.851562 C 98.546875 30.945312 96.871094 33.546875 94.792969 34.058594 C 93.324219 34.46875 92.917969 35.183594 87.894531 46.210938 C 82.976562 57.136719 82.621094 58.058594 83.128906 59.691406 C 83.839844 62.140625 82.722656 64.644531 80.542969 65.613281 C 78.96875 66.226562 78.410156 67.25 73.085938 79.042969 C 68.265625 89.765625 67.457031 91.960938 67.914062 92.832031 C 69.941406 96.609375 66.1875 100.898438 62.027344 99.519531 C 59.441406 98.652344 58.074219 95.332031 59.339844 92.933594 C 59.796875 92.117188 58.78125 89.511719 54.066406 79.09375 C 49.246094 68.371094 48.03125 66.125 46.761719 65.359375 C 44.632812 64.03125 43.972656 62.550781 44.328125 60.203125 C 44.632812 58.414062 44.023438 56.832031 39.257812 46.210938 C 34.539062 35.792969 33.675781 34.210938 32.714844 34.210938 C 30.9375 34.210938 28.910156 31.8125 28.910156 29.769531 C 28.910156 27.421875 29.671875 26.09375 31.597656 25.226562 C 33.472656 24.40625 35.351562 24.714844 36.820312 26.09375 Z M 36.820312 26.09375 "/>
<path style=" stroke:none;fill-rule:nonzero;fill:rgb(0%,0%,0%);fill-opacity:1;" d="M 40.21875 31.453125 C 41.285156 32.578125 63.246094 48.507812 63.652344 48.507812 C 64.109375 48.507812 85.765625 32.832031 86.933594 31.660156 C 87.289062 31.300781 79.527344 31.148438 63.652344 31.148438 C 50.617188 31.148438 40.015625 31.300781 40.21875 31.453125 Z M 40.21875 31.453125 "/>
<path style=" stroke:none;fill-rule:nonzero;fill:rgb(0%,0%,0%);fill-opacity:1;" d="M 38.902344 36.101562 C 39.105469 36.558594 41.234375 41.308594 43.617188 46.671875 C 46.8125 53.71875 48.285156 56.371094 48.945312 56.476562 C 49.449219 56.578125 50.464844 56.730469 51.125 56.933594 C 52.089844 57.191406 53.203125 56.578125 56.347656 54.175781 L 60.40625 51.164062 L 50.160156 43.605469 C 38.089844 34.671875 38.445312 34.925781 38.902344 36.101562 Z M 38.902344 36.101562 "/>
<path style=" stroke:none;fill-rule:nonzero;fill:rgb(0%,0%,0%);fill-opacity:1;" d="M 77.449219 43.503906 C 71.613281 47.742188 66.949219 51.265625 67.050781 51.316406 C 67.152344 51.417969 69.027344 52.796875 71.261719 54.484375 L 75.316406 57.445312 L 77.347656 56.730469 C 79.375 56.015625 79.425781 55.914062 83.839844 46.109375 C 86.324219 40.59375 88.25 36.050781 88.148438 35.949219 C 88.046875 35.84375 83.230469 39.265625 77.449219 43.503906 Z M 77.449219 43.503906 "/>
<path style=" stroke:none;fill-rule:nonzero;fill:rgb(0%,0%,0%);fill-opacity:1;" d="M 58.632812 57.242188 C 55.941406 59.230469 53.761719 61.171875 53.761719 61.632812 C 53.761719 62.039062 53.355469 63.0625 52.898438 63.828125 C 52.039062 65.308594 52.089844 65.359375 57.515625 77.460938 C 60.507812 84.148438 63.144531 89.816406 63.398438 90.023438 C 63.601562 90.226562 66.289062 84.8125 69.433594 77.921875 L 75.0625 65.359375 L 74.457031 63.265625 C 73.898438 61.480469 73.085938 60.609375 69.230469 57.75 C 66.746094 55.863281 64.414062 54.175781 64.109375 53.972656 C 63.804688 53.820312 61.371094 55.25 58.632812 57.242188 Z M 58.632812 57.242188 "/>
</g>
</svg>
