<?xml version="1.0" encoding="UTF-8"?>
<svg xmlns="http://www.w3.org/2000/svg" xmlns:xlink="http://www.w3.org/1999/xlink" width="125pt" height="125pt" viewBox="0 0 125 125" version="1.1">
<g id="surface1">
<path style=" stroke:none;fill-rule:nonzero;fill:rgb(0%,55.294118%,89.411765%);fill-opacity:1;" d="M 125 62.5 C 125 97.019531 97.019531 125 62.5 125 C 27.980469 125 0 97.019531 0 62.5 C 0 27.980469 27.980469 0 62.5 0 C 97.019531 0 125 27.980469 125 62.5 Z M 125 62.5 "/>
<path style=" stroke:none;fill-rule:nonzero;fill:rgb(100%,100%,100%);fill-opacity:1;" d="M 75.863281 27.496094 L 44.464844 27.496094 L 41.867188 42.039062 L 70.210938 42.078125 C 84.167969 42.078125 88.296875 47.148438 88.175781 55.546875 C 88.109375 59.859375 86.253906 67.144531 85.441406 69.507812 C 83.292969 75.796875 78.875 82.988281 62.3125 82.960938 L 34.753906 82.949219 L 32.140625 97.503906 L 63.46875 97.503906 C 74.523438 97.503906 79.21875 96.21875 84.195312 93.921875 C 95.234375 88.828125 101.804688 77.933594 104.433594 63.722656 C 108.359375 42.554688 103.476562 27.496094 75.863281 27.496094 "/>
<path style=" stroke:none;fill-rule:nonzero;fill:rgb(100%,100%,100%);fill-opacity:1;" d="M 30.90625 55.1875 C 22.679688 55.1875 21.496094 60.550781 20.726562 63.789062 C 19.707031 68.035156 19.375 69.746094 19.375 69.746094 L 51.527344 69.746094 C 59.753906 69.746094 60.933594 64.382812 61.703125 61.148438 C 62.726562 56.898438 63.058594 55.1875 63.058594 55.1875 Z M 30.90625 55.1875 "/>
</g>
</svg>
