<?xml version="1.0" encoding="UTF-8"?>
<svg xmlns="http://www.w3.org/2000/svg" xmlns:xlink="http://www.w3.org/1999/xlink" width="128pt" height="128pt" viewBox="0 0 128 128" version="1.1">
<g id="surface1">
<path style=" stroke:none;fill-rule:nonzero;fill:rgb(76.078431%,65.098039%,20%);fill-opacity:1;" d="M 65.535156 42.175781 L 56.390625 42.175781 L 56.390625 60.203125 L 70.777344 60.203125 L 70.777344 67.753906 L 56.390625 67.753906 L 56.390625 85.777344 L 65.984375 85.777344 C 68.449219 85.777344 86.21875 86.058594 86.191406 64.804688 C 86.164062 43.550781 68.957031 42.175781 65.535156 42.175781 Z M 65.535156 42.175781 "/>
<path style=" stroke:none;fill-rule:nonzero;fill:rgb(76.078431%,65.098039%,20%);fill-opacity:1;" d="M 64 0 C 28.652344 0 0 28.652344 0 64 C 0 99.347656 28.652344 128 64 128 C 99.347656 128 128 99.347656 128 64 C 128 28.652344 99.347656 0 64 0 Z M 66.515625 98.566406 L 43.335938 98.566406 L 43.335938 67.753906 L 35.167969 67.753906 L 35.167969 60.203125 L 43.335938 60.203125 L 43.335938 29.390625 L 63.230469 29.390625 C 67.933594 29.390625 99.105469 28.414062 99.105469 64.554688 C 99.105469 101.296875 66.515625 98.566406 66.515625 98.566406 Z M 66.515625 98.566406 "/>
</g>
</svg>
