<?xml version="1.0" encoding="UTF-8"?>
<svg xmlns="http://www.w3.org/2000/svg" xmlns:xlink="http://www.w3.org/1999/xlink" width="128pt" height="128pt" viewBox="0 0 128 128" version="1.1">
<g id="surface1">
<path style=" stroke:none;fill-rule:nonzero;fill:rgb(0%,0%,0%);fill-opacity:1;" d="M 59.21875 0.398438 C 37.011719 2.335938 17.59375 15.089844 7.742188 34.164062 C 2.390625 44.527344 0.398438 52.78125 0.398438 64.339844 C 0.457031 75.160156 2.335938 83.1875 7.003906 92.527344 C 15.886719 110.347656 32 122.589844 51.816406 126.691406 C 58.304688 128.058594 69.808594 128.058594 76.300781 126.691406 C 102.09375 121.394531 121.394531 102.09375 126.691406 76.300781 C 128.058594 69.808594 128.058594 58.304688 126.691406 51.816406 C 120.597656 22.378906 96.683594 1.878906 66.621094 0.398438 C 63.941406 0.226562 60.640625 0.226562 59.21875 0.398438 Z M 30.40625 33.023438 C 39.003906 34.277344 47.316406 38.546875 52.667969 44.527344 C 55.402344 47.601562 58.988281 54.148438 59.558594 57.28125 L 59.898438 59.21875 L 68.214844 59.21875 L 68.613281 57.054688 C 68.839844 55.914062 69.921875 53.179688 71.058594 51.019531 C 76.242188 41.167969 85.863281 34.734375 98.050781 33.082031 C 102.546875 32.457031 107.617188 32.796875 107.617188 33.652344 C 107.617188 33.9375 106.820312 35.929688 105.851562 38.09375 L 104.085938 42.019531 L 99.929688 42.648438 C 94.460938 43.445312 90.363281 45.039062 86.832031 47.714844 C 83.816406 49.992188 80 55.058594 79.375 57.621094 L 79.03125 59.21875 L 82.449219 59.21875 C 84.328125 59.21875 86.605469 59.386719 87.574219 59.558594 L 89.28125 59.898438 L 87.574219 64 C 86.605469 66.21875 85.578125 68.382812 85.296875 68.726562 C 84.953125 69.125 83.472656 69.464844 81.9375 69.464844 C 80.058594 69.464844 79.144531 69.695312 79.144531 70.148438 C 79.144531 71.6875 82.5625 76.699219 85.351562 79.316406 C 89.109375 82.847656 93.609375 84.898438 99.300781 85.636719 L 103.800781 86.261719 L 105.738281 90.421875 C 106.761719 92.753906 107.445312 94.859375 107.273438 95.203125 C 106.535156 96.398438 95.261719 95.316406 90.304688 93.664062 C 85.011719 91.785156 78.347656 87.515625 75.160156 83.816406 C 72.539062 80.796875 69.125 74.363281 68.554688 71.402344 L 68.214844 69.464844 L 59.898438 69.464844 L 59.5 71.289062 C 58.535156 75.558594 55.515625 80.570312 51.246094 84.839844 C 46.578125 89.507812 42.476562 92.015625 36.214844 93.894531 C 31.886719 95.261719 22.945312 96.058594 21.75 95.203125 C 21.125 94.804688 21.351562 93.835938 22.777344 90.421875 L 24.597656 86.207031 L 28.980469 85.523438 C 33.9375 84.726562 37.980469 82.960938 41.394531 80.058594 C 43.898438 77.835938 46.976562 73.453125 47.542969 71.117188 L 47.886719 69.636719 L 42.988281 69.351562 C 40.3125 69.179688 37.980469 68.898438 37.808594 68.726562 C 37.636719 68.613281 38.433594 66.449219 39.515625 64 L 41.507812 59.5 L 44.925781 59.332031 L 48.339844 59.160156 L 47.542969 56.882812 C 44.867188 49.308594 37.695312 43.898438 28.527344 42.589844 L 24.027344 41.90625 L 22.492188 38.207031 C 21.636719 36.15625 20.839844 34.164062 20.667969 33.765625 C 20.15625 32.511719 24.597656 32.226562 30.40625 33.023438 Z M 30.40625 33.023438 "/>
</g>
</svg>
