<?xml version="1.0" encoding="UTF-8"?>
<svg xmlns="http://www.w3.org/2000/svg" xmlns:xlink="http://www.w3.org/1999/xlink" width="127pt" height="125pt" viewBox="0 0 127 125" version="1.1">
<g id="surface1">
<path style=" stroke:none;fill-rule:evenodd;fill:rgb(0%,65.098039%,75.686275%);fill-opacity:1;" d="M 127 61.796875 L 127 122.066406 L 23.527344 17.875 C 34.496094 6.832031 49.648438 0 66.386719 0 C 66.675781 0 66.960938 0.00390625 67.25 0.0078125 L 67.25 0 C 100.332031 0.476562 127 27.617188 127 61.03125 C 127 61.285156 127 61.539062 126.996094 61.792969 Z M 0 63.171875 L 0 2.90625 L 103.472656 107.09375 C 92.503906 118.140625 77.351562 124.972656 60.613281 124.972656 C 60.324219 124.972656 60.039062 124.96875 59.75 124.964844 L 59.75 124.972656 C 26.667969 124.496094 0 97.351562 0 63.9375 C 0 63.683594 0 63.429688 0.00390625 63.179688 Z M 0 63.171875 "/>
</g>
</svg>
