<?xml version="1.0" encoding="UTF-8"?>
<svg xmlns="http://www.w3.org/2000/svg" xmlns:xlink="http://www.w3.org/1999/xlink" width="128pt" height="128pt" viewBox="0 0 128 128" version="1.1">
<g id="surface1">
<path style=" stroke:none;fill-rule:nonzero;fill:rgb(0%,0%,0%);fill-opacity:1;" d="M 63.335938 34.605469 C 59.296875 37.316406 55.769531 39.667969 55.515625 39.921875 C 55.003906 40.382812 56.28125 39.972656 70.492188 35.476562 L 78.363281 33.023438 L 75.605469 31.796875 C 74.070312 31.132812 72.332031 30.363281 71.769531 30.160156 C 70.902344 29.800781 69.265625 30.671875 63.335938 34.605469 Z M 63.335938 34.605469 "/>
<path style=" stroke:none;fill-rule:nonzero;fill:rgb(0%,0%,0%);fill-opacity:1;" d="M 54.390625 42.734375 C 54.59375 43.246094 59.296875 53.878906 64.816406 66.351562 L 74.886719 88.996094 L 78.007812 67.375 C 79.746094 55.464844 81.125 45.699219 81.125 45.648438 C 81.074219 45.597656 75.757812 44.882812 69.265625 44.011719 C 62.824219 43.09375 56.742188 42.273438 55.769531 42.070312 C 54.183594 41.816406 54.082031 41.867188 54.390625 42.734375 Z M 54.390625 42.734375 "/>
<path style=" stroke:none;fill-rule:nonzero;fill:rgb(0%,0%,0%);fill-opacity:1;" d="M 46.570312 71.15625 C 43.09375 86.695312 39.972656 100.753906 39.617188 102.390625 C 39.105469 104.535156 39.105469 105.203125 39.515625 104.945312 C 40.28125 104.484375 59.960938 90.429688 60.421875 90.019531 C 60.574219 89.867188 60.320312 87.15625 59.757812 84.089844 C 59.246094 80.972656 58.835938 78.007812 58.835938 77.445312 C 58.886719 76.882812 59.398438 79.285156 60.011719 82.8125 L 61.085938 89.203125 L 67.375 89.609375 C 70.851562 89.867188 73.816406 89.917969 73.96875 89.761719 C 74.324219 89.40625 53.878906 43.246094 53.265625 43.042969 C 53.0625 42.992188 49.992188 55.617188 46.570312 71.15625 Z M 46.570312 71.15625 "/>
<path style=" stroke:none;fill-rule:nonzero;fill:rgb(0%,0%,0%);fill-opacity:1;" d="M 81.789062 46.773438 C 81.789062 47.027344 80.5625 55.769531 79.027344 66.199219 C 77.496094 76.574219 76.320312 85.164062 76.371094 85.214844 C 76.421875 85.316406 78.515625 77.800781 81.023438 68.601562 C 83.527344 59.398438 85.621094 51.628906 85.726562 51.375 C 85.828125 51.066406 84.957031 49.839844 83.832031 48.5625 C 82.761719 47.285156 81.839844 46.464844 81.789062 46.773438 Z M 81.789062 46.773438 "/>
</g>
</svg>
