<?xml version="1.0" encoding="UTF-8"?>
<svg xmlns="http://www.w3.org/2000/svg" xmlns:xlink="http://www.w3.org/1999/xlink" width="128pt" height="128pt" viewBox="0 0 128 128" version="1.1">
<g id="surface1">
<path style=" stroke:none;fill-rule:nonzero;fill:rgb(32.54902%,68.235294%,58.039216%);fill-opacity:1;" d="M 64 0 C 99.34375 0 128 28.65625 128 64 C 128 99.34375 99.34375 128 64 128 C 28.65625 128 0 99.351562 0 64 C 0 28.648438 28.652344 0 64 0 "/>
<path style=" stroke:none;fill-rule:nonzero;fill:rgb(100%,100%,100%);fill-opacity:1;" d="M 71.898438 55.472656 L 71.898438 45.953125 L 93.671875 45.953125 L 93.671875 31.445312 L 34.386719 31.445312 L 34.386719 45.953125 L 56.160156 45.953125 L 56.160156 55.464844 C 38.464844 56.277344 25.160156 59.78125 25.160156 63.980469 C 25.160156 68.179688 38.46875 71.683594 56.160156 72.5 L 56.160156 102.996094 L 71.902344 102.996094 L 71.902344 72.5 C 89.566406 71.683594 102.847656 68.183594 102.847656 63.988281 C 102.847656 59.792969 89.566406 56.289062 71.902344 55.476562 M 71.902344 69.917969 L 71.902344 69.910156 C 71.460938 69.9375 69.175781 70.074219 64.097656 70.074219 C 60.035156 70.074219 57.175781 69.957031 56.167969 69.90625 L 56.167969 69.917969 C 40.535156 69.226562 28.863281 66.503906 28.863281 63.246094 C 28.863281 59.988281 40.535156 57.269531 56.167969 56.574219 L 56.167969 67.207031 C 57.191406 67.277344 60.121094 67.449219 64.164062 67.449219 C 69.019531 67.449219 71.457031 67.246094 71.90625 67.207031 L 71.90625 56.574219 C 87.507812 57.269531 99.152344 59.996094 99.152344 63.242188 C 99.152344 66.488281 87.503906 69.214844 71.90625 69.910156 "/>
</g>
</svg>
