<?xml version="1.0" encoding="UTF-8"?>
<svg xmlns="http://www.w3.org/2000/svg" xmlns:xlink="http://www.w3.org/1999/xlink" width="127pt" height="108pt" viewBox="0 0 127 108" version="1.1">
<g id="surface1">
<path style=" stroke:none;fill-rule:nonzero;fill:rgb(0%,0%,0%);fill-opacity:1;" d="M 109.074219 14.1875 L 93.78125 22.003906 L 19.941406 59.746094 C 19.691406 57.835938 19.566406 55.910156 19.5625 53.984375 C 19.585938 38.335938 27.859375 23.867188 41.3125 15.957031 C 54.765625 8.046875 71.390625 7.871094 85.003906 15.503906 L 93.757812 11.027344 L 95.0625 10.359375 C 78.710938 -1.546875 57.089844 -3.246094 39.09375 5.960938 C 21.09375 15.167969 9.765625 33.726562 9.769531 54 C 9.769531 55.375 9.820312 56.742188 9.925781 58.101562 C 10.222656 62.046875 8.128906 65.785156 4.617188 67.582031 L 0 69.945312 L 0 80.957031 L 13.589844 74.007812 L 17.988281 71.753906 L 22.324219 69.539062 L 100.171875 29.738281 L 108.917969 25.265625 L 127 16.019531 L 127 5.011719 Z M 109.074219 14.1875 "/>
<path style=" stroke:none;fill-rule:nonzero;fill:rgb(0%,0%,0%);fill-opacity:1;" d="M 127 27.042969 L 26.746094 78.261719 L 18 82.742188 L 0 91.949219 L 0 102.953125 L 17.875 93.8125 L 33.167969 85.996094 L 107.085938 48.199219 C 107.335938 50.121094 107.460938 52.058594 107.464844 54 C 107.453125 69.667969 99.167969 84.152344 85.695312 92.070312 C 72.222656 99.984375 55.578125 100.136719 41.960938 92.476562 L 41.421875 92.761719 L 31.933594 97.613281 C 48.277344 109.523438 69.898438 111.226562 87.894531 102.023438 C 105.890625 92.820312 117.226562 74.269531 117.230469 54 C 117.230469 52.613281 117.179688 51.230469 117.074219 49.859375 C 116.777344 45.914062 118.871094 42.179688 122.378906 40.378906 L 127 38.019531 Z M 127 27.042969 "/>
</g>
</svg>
