<?xml version="1.0" encoding="UTF-8"?>
<svg xmlns="http://www.w3.org/2000/svg" xmlns:xlink="http://www.w3.org/1999/xlink" width="128pt" height="174pt" viewBox="0 0 128 174" version="1.1">
<g id="surface1">
<path style=" stroke:none;fill-rule:nonzero;fill:rgb(17.254902%,49.019608%,96.862745%);fill-opacity:1;" d="M 82.386719 172.480469 C 69.996094 172.480469 60.972656 169.519531 55.300781 163.597656 C 49.636719 157.679688 46.800781 151.296875 46.800781 144.457031 C 46.800781 141.953125 47.292969 139.851562 48.285156 138.140625 C 49.246094 136.453125 50.648438 135.054688 52.339844 134.089844 C 54.050781 133.105469 56.160156 132.613281 58.664062 132.613281 C 61.171875 132.613281 63.277344 133.105469 64.992188 134.089844 C 66.703125 135.078125 68.054688 136.429688 69.042969 138.140625 C 70.03125 139.851562 70.523438 141.953125 70.523438 144.457031 C 70.523438 147.480469 69.800781 149.945312 68.351562 151.855469 C 66.902344 153.765625 65.1875 155.011719 63.210938 155.609375 C 64.925781 157.972656 67.628906 159.652344 71.316406 160.636719 C 75.007812 161.691406 78.699219 162.21875 82.386719 162.21875 C 87.527344 162.21875 92.171875 160.835938 96.328125 158.074219 C 100.476562 155.308594 103.542969 151.230469 105.519531 145.835938 C 107.5 140.441406 108.488281 134.324219 108.488281 127.480469 C 108.488281 120.046875 107.398438 113.695312 105.222656 108.433594 C 103.113281 103.105469 99.984375 99.160156 95.832031 96.589844 C 91.804688 94.0625 87.144531 92.730469 82.386719 92.746094 C 79.222656 92.746094 75.273438 94.0625 70.523438 96.691406 L 61.828125 101.035156 L 61.828125 96.691406 L 100.972656 44.585938 L 46.800781 44.585938 L 46.800781 98.664062 C 46.800781 103.136719 47.789062 106.824219 49.765625 109.71875 C 51.746094 112.613281 54.777344 114.058594 58.863281 114.058594 C 62.023438 114.058594 65.058594 113.007812 67.957031 110.902344 C 70.875 108.777344 73.414062 106.175781 75.46875 103.207031 C 75.734375 102.609375 76.0625 102.183594 76.457031 101.921875 C 76.8125 101.605469 77.269531 101.433594 77.742188 101.429688 C 78.464844 101.429688 79.320312 101.789062 80.3125 102.515625 C 81.238281 103.566406 81.695312 104.785156 81.695312 106.164062 C 81.582031 107.09375 81.417969 108.019531 81.199219 108.929688 C 78.960938 113.929688 75.863281 117.742188 71.910156 120.375 C 68.058594 122.976562 63.511719 124.351562 58.863281 124.324219 C 47.132812 124.324219 39.023438 122.019531 34.542969 117.417969 C 30.0625 112.808594 27.824219 106.558594 27.824219 98.667969 L 27.824219 44.585938 L 0.140625 44.585938 L 0.140625 34.519531 L 27.824219 34.519531 L 27.824219 11.628906 L 21.496094 5.308594 L 21.496094 0.179688 L 39.882812 0.179688 L 46.800781 3.730469 L 46.800781 34.519531 L 118.371094 34.324219 L 125.488281 41.429688 L 81.597656 85.242188 C 84.253906 84.1875 87.054688 83.523438 89.902344 83.269531 C 94.644531 83.269531 99.984375 84.785156 105.914062 87.808594 C 111.914062 90.769531 116.527344 94.851562 119.753906 100.042969 C 122.984375 105.175781 125.058594 110.113281 125.980469 114.847656 C 126.96875 119.585938 127.464844 123.796875 127.464844 127.480469 C 127.464844 135.902344 125.683594 143.730469 122.128906 150.96875 C 118.570312 158.203125 113.164062 163.597656 105.914062 167.152344 C 98.667969 170.703125 90.824219 172.480469 82.386719 172.480469 Z M 82.386719 172.480469 "/>
</g>
</svg>
