<?xml version="1.0" standalone="no"?>
<!DOCTYPE svg PUBLIC "-//W3C//DTD SVG 20010904//EN"
 "http://www.w3.org/TR/2001/REC-SVG-20010904/DTD/svg10.dtd">
<svg version="1.0" xmlns="http://www.w3.org/2000/svg"
 width="250.000000pt" height="245.000000pt" viewBox="0 0 250.000000 245.000000"
 preserveAspectRatio="xMidYMid meet">
<metadata>
Created by potrace 1.16, written by Peter Selinger 2001-2019
</metadata>
<g transform="translate(0.000000,245.000000) scale(0.100000,-0.100000)"
fill="#000000" stroke="none">
<path d="M0 1225 l0 -1225 1250 0 1250 0 0 1225 0 1225 -1250 0 -1250 0 0
-1225z m726 714 c19 -18 41 -19 523 -19 501 0 502 0 532 22 60 45 141 15 154
-57 8 -41 -25 -92 -66 -102 -29 -8 -37 -22 -136 -238 -97 -214 -104 -232 -94
-264 14 -48 -8 -97 -51 -116 -31 -12 -42 -32 -147 -263 -95 -210 -111 -253
-102 -270 40 -74 -34 -158 -116 -131 -51 17 -78 82 -53 129 9 16 -11 67 -104
271 -95 210 -119 254 -144 269 -42 26 -55 55 -48 101 6 35 -6 66 -100 274 -93
204 -110 235 -129 235 -35 0 -75 47 -75 87 0 46 15 72 53 89 37 16 74 10 103
-17z"/>
<path d="M793 1834 c21 -22 454 -334 462 -334 9 0 436 307 459 330 7 7 -146
10 -459 10 -257 0 -466 -3 -462 -6z"/>
<path d="M767 1743 c4 -9 46 -102 93 -207 63 -138 92 -190 105 -192 10 -2 30
-5 43 -9 19 -5 41 7 103 54 l80 59 -202 148 c-238 175 -231 170 -222 147z"/>
<path d="M1527 1598 c-115 -83 -207 -152 -205 -153 2 -2 39 -29 83 -62 l80
-58 40 14 c40 14 41 16 128 208 49 108 87 197 85 199 -2 2 -97 -65 -211 -148z"/>
<path d="M1156 1329 c-53 -39 -96 -77 -96 -86 0 -8 -8 -28 -17 -43 -17 -29
-16 -30 91 -267 59 -131 111 -242 116 -246 4 -4 57 102 119 237 l111 246 -12
41 c-11 35 -27 52 -103 108 -49 37 -95 70 -101 74 -6 3 -54 -25 -108 -64z"/>
</g>
</svg>
