<svg xmlns="http://www.w3.org/2000/svg" viewBox="0 0 1729.23 1994.32">
  <g fill="none" stroke-width="47.06">
    <path d="M867.44 1966.26l1.9-969.05-841-479.79 841 478.84 833.46-477.89" stroke="#e7e7e9"/>
    <path d="M25.45 1485.53l-1.9-968.1L862.7 27.21l839.15 484.55 3.79 976.64-841 478.84-839.19-481.71z" stroke="#3fa0f1"/>
  </g>
  <path d="M178.09 827.18l-60.58-71.42v-22.91l60.58-1.73v27.59l-36.82-.42 36.82 41.8v27.1zM270.05 879.9l60.58-2v-22.89l-60.58-71.18v27.59l36.82 41.8-36.82-.46v27.1M195.23 773.95l53.62 30.74c3.39 1.95 6.11 7.44 6.11 12.37v12.32c0 4.93-2.71 7.31-6.11 5.37l-53.62-30.74c-3.39-1.95-6.11-7.44-6.11-12.37v-12.33c0-4.92 2.88-7.21 6.11-5.36"/>
  <g fill="#6f9dce">
    <path d="M125.94 867.31l482.63 276.87c4.74 2.84 8.53 9.48 8.53 15.17v22.76c0 5.69-3.79 7.59-8.53 4.74L125.94 909.98c-4.74-2.84-8.53-9.48-8.53-15.17v-22.76c0-5.69 3.79-7.59 8.53-4.74zM125.94 937.48l677 387.81c4.74 2.84 8.53 9.48 8.53 15.17v22.76c0 5.69-3.79 7.59-8.53 4.74l-677-387.82c-4.74-2.84-8.53-9.48-8.53-15.17v-22.75c.01-4.74 3.81-6.64 8.53-4.74M125.94 1004.76l677 387.81c4.74 2.84 8.53 9.48 8.53 15.17v22.76c0 5.69-3.79 7.59-8.53 4.74l-677-387.77c-4.74-2.84-8.53-9.48-8.53-15.17v-22.76c0-4.74 3.79-7.59 8.53-4.74M125.94 1072.12l293 167.83c4.74 2.84 8.53 9.48 8.53 15.17v22.76c0 5.69-3.79 7.59-8.53 4.74l-293-167.86c-4.74-2.84-8.53-9.48-8.53-15.17v-22.73c.01-5.69 3.81-7.59 8.53-4.74M125.94 1138.49l574.6 329c4.74 2.84 8.53 9.48 8.53 15.17v22.76c0 5.69-3.79 7.59-8.53 4.74l-574.6-329c-4.74-2.84-8.53-9.48-8.53-15.17v-22.76c0-4.74 3.79-6.64 8.53-4.74M125.94 1205.81l105.25 59.74c4.74 2.84 8.53 9.48 8.53 15.17v22.76c0 5.69-3.79 7.59-8.53 4.74l-105.25-59.74c-4.74-2.84-8.53-9.48-8.53-15.17v-22.76c.01-4.74 3.81-7.58 8.53-4.74"/>
  </g>
  <path d="M183.67 1447.9l-66.17-77.84v-25.12l66.17-2v30.05l-40.21-.64 40.21 45.71v29.8M257.65 1490.31l66.17-2v-25.12l-66.17-77.84v30.05l40.21 45.47-40.21-.39v29.8"/>
  <text transform="matrix(.69 .39 0 1 203.63 1468.87)" font-family="Arial-Black, Arial Black" font-size="173.09">
    /
  </text>
  <g>
    <path d="M1158.61 1240.11l295.33-166.26c28.31-15.94 51.77-5.12 52.05 25l1.95 205.81c.28 29.66-22.31 66.85-51 83l-295.33 166.26c-28.31 15.94-51.77 5.12-52.05-25l-1.93-205.83c-.28-30.1 22.31-66.85 51-83" fill="#3fa0f1"/>
    <path d="M1291.14 1015.1l27.46-15.46c56.19-31.63 102.27-9.52 102.82 49.35l1.19 126.59c.55 58.87-44.63 132.36-100.82 164l-27.46 15.46c-56.19 31.63-102.27 9.52-102.82-49.35l-1.19-126.59c-.55-58.87 44.63-132.36 100.82-164" fill="none" stroke="#3fa0f1" stroke-linejoin="bevel" stroke-width="13.334"/>
    <g fill="#2c6cea">
      <path d="M1277.17 1267.42c20.18-42.47 50.78-74.58 68.35-71.74s15.46 39.58-4.72 82-50.78 74.58-68.35 71.74-15.51-39.53 4.72-82"/>
      <path d="M1297.46 1280.76l23.24-13.08c5.92-3.33 10.61-1.08 10.67 5.12l.66 70.82c.06 6.2-4.54 13.68-10.46 17l-23.24 13.14c-5.92 3.33-10.61 1.08-10.67-5.12l-.66-70.82c-.06-6.25 4.54-13.73 10.46-17.06"/>
    </g>
    <path d="M733.08 388.14a277.61 277.61 0 0 1-49.91-23.75c-44.53-27.14-51.08-51.11-19.73-70.87l84.21-53.06c34-21.45 73.74-18.36 118.27 8.78a199 199 0 0 1 38.35 30l-19.71 12.42a162.86 162.86 0 0 0-36.62-30.08 123.42 123.42 0 0 0-18-8.74c-5.75-2.4-11.51-4.79-18.24-5.57-6.65-1.83-13.47-1.55-20.38-.21a60.09 60.09 0 0 0-21.07 8.26l-82.43 51.94c-20.6 13-15.07 28.57 15.69 47.32a238 238 0 0 0 49.19 22.18zM863.18 470.76l-22.67-13.82 95-59.83c3.58-2.26 6.27-4 7.25-5.57s2.86-3.81 3-5.92c1.07-2.68.43-5.29-2.72-8.32a56.55 56.55 0 0 0-12-9.52c-13.77-8.39-24.46-12.69-31.2-13.46a41 41 0 0 0-23.5 6.78l-95 59.83-21.8-13.34 190.82-120.23 21.86 13.32-75.28 47.42q22.46-9.63 57.68 11.83c15.38 9.37 23.14 18.54 22.53 25.95s-6.32 15-19.76 23.49l-95.83 60.39 1.62 1zM995.17 551.17l-21.05-12.83 12.54-7.9c-11.47 5.22-29 1.21-50.86-12.11q-24.29-14.8-25.95-25.8c-1.1-7.33 7.3-16.65 24.33-27.37 14.33-9 28.32-13.83 39.37-13.76s25.07 5.28 42.07 15.64l35.62 21.72 20.6-13c7.17-4.52 10.11-9.38 7.86-13-1.36-4.16-7.75-9.17-19.09-16.07a323.67 323.67 0 0 0-44.07-22.41l17.92-11.29q27 13.11 46.41 25 30.36 18.5 30.8 28.76c.29 6.84-7.22 15.59-24.24 26.31m-87.26 27.85l35.83-22.58-34-20.72c-10.53-6.41-18-8.74-23.91-9-5.12.21-13.9 3.74-23.76 10-9 5.64-14.51 11.15-15.66 14.89s3.53 8.81 11.63 13.75l14.57 8.88c3.24 2 7.37 3.38 11.51 4.79a38.59 38.59 0 0 0 12.56 2.04c4.25.36 7.66.21 11.24-2.04M1209.94 491.09l-21.82-13.33 26-16.37 21.82 13.37zm-154 97.09l-21.86-13.32 131.69-83 21.86 13.32-131.69 83zM1196.78 674.03l-21.84-13.32 95-59.83c3.58-2.26 6.27-4 7.25-5.57s2.86-3.81 3-5.92c1.07-2.68.43-5.29-2.72-8.32a56.55 56.55 0 0 0-12-9.52c-13-7.89-23.65-12.19-30.39-13s-15.44 1.7-23.5 6.78l-95 59.83-21.86-13.32 131.69-83 21.86 13.32-16.13 10.16q22.46-9.63 57.68 11.83c15.38 9.37 23.14 18.54 22.53 25.95s-6.32 15-19.76 23.49l-95.86 60.4zM506.94 524.6l-102-62.17 176.48-111.2 23.48 14.31-158.58 99.91 78.54 47.86M707.19 455.63l-21.86-13.32 26-16.37 21.86 13.32zM553.1 552.76l-21.86-13.36 131.69-83 21.86 13.36zM693.94 638.57l-21.86-13.32 95-59.83c3.58-2.26 6.27-4 7.25-5.57s2.86-3.81 3-5.92c1.07-2.68.43-5.29-2.72-8.32a56.55 56.55 0 0 0-12-9.52c-13-7.89-23.65-12.19-30.39-13s-15.44 1.7-23.5 6.78l-95 59.83-21.78-13.3 131.69-83 21.89 13.36-16.13 10.16q22.46-9.63 57.68 11.83c15.38 9.37 23.14 18.54 22.53 25.95s-6.32 15-19.76 23.49l-95.9 60.38zM838.94 726.89l-27.53-16.78 14.53-63.35-29 1.21 26.32-20.6 116-4.83 27.36 18.89-111.84 6.24-15.84 79.22zm-85-51.81l-21.9-13.32 190.82-120.23 21.86 13.32z"/>
  </g>
</svg>
