<?xml version="1.0" standalone="no"?>
<!DOCTYPE svg PUBLIC "-//W3C//DTD SVG 20010904//EN"
 "http://www.w3.org/TR/2001/REC-SVG-20010904/DTD/svg10.dtd">
<svg version="1.0" xmlns="http://www.w3.org/2000/svg"
 width="400.000000pt" height="400.000000pt" viewBox="0 0 400.000000 400.000000"
 preserveAspectRatio="xMidYMid meet">
<metadata>
Created by potrace 1.16, written by Peter Selinger 2001-2019
</metadata>
<g transform="translate(0.000000,400.000000) scale(0.100000,-0.100000)"
fill="#000000" stroke="none">
<path d="M0 2000 l0 -2000 2000 0 2000 0 0 2000 0 2000 -2000 0 -2000 0 0
-2000z m2906 891 c17 -10 40 -32 51 -48 19 -27 19 -30 4 -78 -19 -59 -65 -95
-119 -95 -44 0 -110 43 -118 77 -19 74 43 163 113 163 21 0 52 -9 69 -19z
m-1965 -416 c34 -18 69 -69 69 -103 0 -27 -24 -88 -42 -105 -18 -17 -103 -21
-139 -7 -18 8 -36 28 -49 55 -17 36 -19 50 -11 85 11 49 20 61 64 77 45 16 73
16 108 -2z m1174 -305 c101 -69 116 -228 30 -315 -92 -91 -246 -73 -321 37
-24 36 -29 53 -29 108 0 57 4 71 33 112 69 100 191 124 287 58z m-315 -1203
c41 -14 80 -68 80 -109 0 -39 -22 -78 -59 -105 -74 -55 -180 2 -181 98 0 44 7
59 55 116 13 15 60 15 105 0z"/>
</g>
</svg>
