<svg xmlns="http://www.w3.org/2000/svg" viewBox="0 0 2000 2000">
  <g fill-rule="nonzero" fill="none">
    <path d="M1970.071283 758.285902c133.621293 535.624771-192.497247 1078.265563-728.357185 1211.785381-535.859937 133.519819-1078.24153-192.430746-1211.700876-728.198254C-103.446126 706.105521 222.363598 163.459045 758.12697 30.013222c535.763373-133.445823 1078.423934 192.390388 1211.944312 728.27268z" fill="#F7931A"/>
    <path d="M1322.494275 667.169497c-44.919583-126.82693-167.965829-142.426143-312.71023-119.510422l-44.889607-180.277524-109.74768 27.389412 43.68853 175.547765c-28.817355 7.190607-58.172058 15.074652-87.302106 22.997805l-44.091847-176.6471-109.650556 27.33777 44.971528 180.154686-221.150392 55.500259 29.244692 117.198857s80.649932-21.748573 79.67585-19.916862c44.449325-11.062598 65.368346 11.11212 75.115614 32.34094l123.098892 493.810249c1.53463 14.473718-1.130283 38.813895-32.188345 46.561667 1.722397.896298-79.813331 19.7861-79.813331 19.7861l10.951843 136.642789 221.327931-54.48474 45.50466 182.328892 109.606409-27.314296-44.955334-180.401137c30.300537-6.914612 59.427054-13.90718 87.834894-21.015952l44.719908 179.574956 109.730021-27.380023-45.340345-182.01986c181.845277-56.595869 299.389608-135.268399 272.218928-312.361738-21.831242-142.704793-102.932063-188.602727-213.941585-187.65611 55.514115-48.31804 81.062395-115.291655 48.045056-208.082324m-56.335148 428.074953c33.945283 136.263643-203.125939 178.925515-277.520123 197.529058l-60.194434-241.566347c74.387034-18.531788 302.23664-98.048297 337.740486 44.000852m-135.93798-328.084008C1161.09655 891.239016 962.90334 925.268302 900.920218 940.71578L846.21384 721.612276c62.01017-15.439208 251.697215-83.65693 283.911304 45.644517" fill="#FFF"/>
  </g>
</svg>
