<?xml version="1.0" standalone="no"?>
<!DOCTYPE svg PUBLIC "-//W3C//DTD SVG 20010904//EN"
 "http://www.w3.org/TR/2001/REC-SVG-20010904/DTD/svg10.dtd">
<svg version="1.0" xmlns="http://www.w3.org/2000/svg"
 width="225.000000pt" height="225.000000pt" viewBox="0 0 225.000000 225.000000"
 preserveAspectRatio="xMidYMid meet">
<metadata>
Created by potrace 1.16, written by Peter Selinger 2001-2019
</metadata>
<g transform="translate(0.000000,225.000000) scale(0.100000,-0.100000)"
fill="#000000" stroke="none">
<path d="M1040 2243 c-390 -34 -731 -258 -904 -593 -94 -182 -129 -327 -129
-530 1 -190 34 -331 116 -495 156 -313 439 -528 787 -600 114 -24 316 -24 430
0 453 93 792 432 885 885 24 114 24 316 0 430 -107 517 -527 877 -1055 903
-47 3 -105 3 -130 0z m-506 -573 c151 -22 297 -97 391 -202 48 -54 111 -169
121 -224 l6 -34 73 0 73 0 7 38 c4 20 23 68 43 106 91 173 260 286 474 315 79
11 168 5 168 -10 0 -5 -14 -40 -31 -78 l-31 -69 -73 -11 c-96 -14 -168 -42
-230 -89 -53 -40 -120 -129 -131 -174 l-6 -28 60 0 c33 0 73 -3 90 -6 l30 -6
-30 -72 c-17 -39 -35 -77 -40 -83 -6 -7 -32 -13 -59 -13 -33 0 -49 -4 -49 -12
0 -27 60 -115 109 -161 66 -62 145 -98 245 -111 l79 -11 34 -73 c18 -41 30
-78 27 -84 -13 -21 -211 -2 -298 27 -93 33 -210 108 -266 173 -46 53 -106 166
-116 218 l-6 34 -73 0 -73 0 -7 -32 c-17 -75 -70 -163 -145 -238 -82 -82 -154
-126 -264 -159 -76 -24 -233 -38 -254 -23 -11 7 -7 24 18 84 l32 74 77 12 c87
14 158 45 218 96 44 39 98 116 108 157 l6 26 -86 5 c-47 3 -88 8 -91 11 -3 2
11 40 30 83 l35 79 60 3 60 3 -14 40 c-47 133 -173 228 -334 251 l-79 12 -27
65 c-15 36 -29 71 -32 78 -9 22 69 27 171 13z"/>
</g>
</svg>
