<svg viewBox="0 0 2000 1955" xmlns="http://www.w3.org/2000/svg">
  <g fill="#00A6C1" fill-rule="evenodd">
    <path d="M2000 966.508345v942.582565L370.488982 279.579891C543.227733 106.841139 781.864097 0 1045.45455 0c4.54046 0 9.07351.031701 13.59895.094895L1059.05984 0C1580.01908 7.423323 2000 431.938489 2000 954.545455c0 3.968505-.02422 7.931354-.07251 11.888406l.07251.074484zM0 988.037109V45.454546L1629.51102 1674.96556c-172.73875 172.73876-411.37512 279.57989-674.965565 279.57989-4.54046 0-9.073516-.0317-13.598958-.09489l-.006334.09489C419.980918 1947.12213 0 1522.60697 0 1000c0-3.968505.024218-7.931354.072513-11.888407L0 988.037109z"/>
  </g>
</svg>
