<?xml version="1.0" standalone="no"?>
<!DOCTYPE svg PUBLIC "-//W3C//DTD SVG 20010904//EN"
 "http://www.w3.org/TR/2001/REC-SVG-20010904/DTD/svg10.dtd">
<svg version="1.0" xmlns="http://www.w3.org/2000/svg"
 width="250.000000pt" height="250.000000pt" viewBox="0 0 250.000000 250.000000"
 preserveAspectRatio="xMidYMid meet">
<metadata>
Created by potrace 1.16, written by Peter Selinger 2001-2019
</metadata>
<g transform="translate(0.000000,250.000000) scale(0.100000,-0.100000)"
fill="#000000" stroke="none">
<path d="M1239 1823 c-79 -53 -148 -99 -153 -104 -10 -9 15 -1 293 87 l154 48
-54 24 c-30 13 -64 28 -75 32 -17 7 -49 -10 -165 -87z"/>
<path d="M1064 1664 c4 -10 96 -218 204 -462 l197 -443 61 423 c34 233 61 424
61 425 -1 1 -105 15 -232 32 -126 18 -245 34 -264 38 -31 5 -33 4 -27 -13z"/>
<path d="M911 1108 c-68 -304 -129 -579 -136 -611 -10 -42 -10 -55 -2 -50 15
9 400 284 409 292 3 3 -2 56 -13 116 -10 61 -18 119 -18 130 1 11 11 -36 23
-105 l21 -125 123 -8 c68 -5 126 -6 129 -3 7 7 -393 910 -405 914 -4 1 -64
-246 -131 -550z"/>
<path d="M1600 1585 c0 -5 -24 -176 -54 -380 -30 -203 -53 -371 -52 -372 1 -2
42 145 91 325 49 180 90 332 92 337 2 6 -15 30 -37 55 -21 25 -39 41 -40 35z"/>
</g>
</svg>
