<svg width="38" height="41" viewBox="0 0 38 41" fill="none" xmlns="http://www.w3.org/2000/svg">
<path fill-rule="evenodd" clip-rule="evenodd" d="M21.1331 29.1935C24.3751 29.1935 26.3191 27.6095 28.4811 25.0875L37.7711 31.7855C34.023 37.6794 27.3876 41.0938 20.4131 40.7175C13.0676 40.7403 6.28002 36.8028 2.65334 30.4151C-0.973336 24.0274 -0.876153 16.1809 2.90762 9.88499C6.6914 3.58906 13.5745 -0.179143 20.9171 0.025542C27.6377 -0.328028 34.0166 3.01017 37.5571 8.73354L28.4111 15.3595C26.884 12.9434 24.209 11.4968 21.3511 11.5415C16.3831 11.5415 13.3511 15.4315 13.3511 20.3295C13.3571 25.3755 16.5331 29.1935 21.1331 29.1935Z" fill="#5200FF"/>
</svg>
